<svg width="100%" height="100%" viewBox="0 0 620 620"
     xmlns="http://www.w3.org/2000/svg"
     xmlns:xlink="http://www.w3.org/1999/xlink">

  <desc>
    Polyskelions
    
    Polyskelion code generated by Polyskelion Maker at:
    http://steamcoded.org/PolyskelionMaker.svg

    Polyskelion Maker written by Jay Nick
    Version 1.0 - March, 2017
  </desc>

  <defs>
    <filter id="f1">
      <feGaussianBlur in="SourceGraphic" stdDeviation="6"/>
    </filter>

    <symbol id="sym1" viewBox="0 0 1153.34 1082.32" overflow="visible">
      <g transform="translate(376.67,214.48)">
        <path d="M0,0c2.79,0,5.54,1.49,7.22,4.17c1.68,2.62,2.26,6.41,1.11,10.26c-1.11,3.87,-3.95,7.79,-8.33,10.57c-4.34,2.79,-10.23,4.37,-16.67,3.87c-6.4,-0.52,-13.37,-3.08,-19.41,-8.04c-6.06,-4.88,-11.14,-12.09,-13.92,-20.83c-2.79,-8.7,-3.23,-18.96,-0.52,-29.17c2.67,-10.2,8.47,-20.33,17.19,-28.57c8.68,-8.21,20.21,-14.52,33.33,-17.26c13.11,-2.79,27.64,-2.07,41.67,2.83c13.98,4.86,27.3,13.82,37.72,26.34c10.4,12.44,17.87,28.37,20.61,45.83c2.83,17.45,0.89,36.39,-6.18,54.17c-7.02,17.77,-19.21,34.28,-35.49,46.87c-16.21,12.58,-36.51,21.23,-58.33,23.96c-21.81,2.83,-45.12,-0.27,-66.67,-9.53c-21.53,-9.21,-41.28,-24.56,-56.02,-44.64c-14.77,-20.01,-24.58,-44.62,-27.31,-70.83c-2.83,-26.19,1.44,-53.82,12.88,-79.17c11.36,-25.34,29.94,-48.24,53.79,-65.17c23.78,-16.99,52.76,-27.92,83.33,-30.66c30.52,-2.82,62.57,2.57,91.67,16.23c29.11,13.56,55.21,35.29,74.32,62.94c19.17,27.55,31.27,60.9,34.01,95.83c2.74,34.94,14.84,68.28,34.01,95.83c19.11,27.65,45.21,49.39,74.32,62.94c29.1,13.66,61.15,19.05,91.67,16.23c30.57,-2.74,59.55,-13.67,83.33,-30.66c23.85,-16.93,42.43,-39.83,53.79,-65.17c11.44,-25.35,15.72,-52.98,12.88,-79.17c-2.73,-26.2,-12.54,-50.82,-27.31,-70.83c-14.73,-20.08,-34.49,-35.43,-56.02,-44.64c-21.55,-9.26,-44.86,-12.36,-66.67,-9.53c-21.82,2.73,-42.12,11.38,-58.33,23.96c-16.28,12.59,-28.47,29.1,-35.49,46.87c-7.07,17.78,-9,36.73,-6.18,54.17c2.74,17.46,10.21,33.39,20.61,45.83c10.42,12.52,23.74,21.48,37.72,26.34c14.03,4.9,28.56,5.62,41.67,2.83c13.12,-2.74,24.65,-9.05,33.33,-17.26c8.72,-8.24,14.52,-18.36,17.19,-28.57c2.71,-10.21,2.27,-20.47,-0.52,-29.17c-2.78,-8.75,-7.87,-15.94,-13.92,-20.83c-6.03,-4.95,-13.01,-7.52,-19.41,-8.04c-6.44,-0.5,-12.33,1.08,-16.67,3.87c-4.38,2.79,-7.21,6.7,-8.33,10.57c-1.15,3.85,-0.56,7.64,1.11,10.26c1.69,2.69,4.43,4.17,7.22,4.17c1.41,2.4,1.46,5.55,0,8.33c-1.44,2.79,-4.41,5.17,-8.33,6.1c-3.91,0.99,-8.72,0.45,-13.32,-1.93c-4.58,-2.37,-8.91,-6.65,-11.68,-12.5c-2.79,-5.8,-4,-13.14,-2.75,-20.83c1.2,-7.68,4.9,-15.7,11.08,-22.47c6.16,-6.77,14.8,-12.26,25,-15.03c10.19,-2.79,21.84,-2.84,33.33,0.59c11.48,3.4,22.68,10.28,31.62,20.24c8.99,9.93,15.6,22.94,18.38,37.5c2.8,14.52,1.68,30.59,-3.94,45.83c-5.54,15.25,-15.67,29.65,-29.39,40.77c-13.7,11.17,-31.07,18.96,-50,21.73c-18.88,2.81,-39.32,0.51,-58.33,-7.29c-19.04,-7.74,-36.63,-21.02,-49.92,-38.54c-13.34,-17.5,-22.34,-39.19,-25.08,-62.5c-2.81,-23.29,0.66,-48,10.64,-70.83c9.92,-22.82,26.39,-43.6,47.69,-59.07c21.26,-15.53,47.35,-25.69,75,-28.43c27.63,-2.8,56.75,1.79,83.33,13.99c26.62,12.12,50.56,31.73,68.22,56.84c17.74,25.05,29.04,55.48,31.78,87.5c2.8,32,-2.95,65.47,-17.34,95.83c-14.29,30.4,-37.11,57.53,-65.99,77.38c-28.88,19.85,-51.7,46.98,-65.99,77.38c-14.38,30.36,-20.15,63.83,-17.34,95.83c2.74,32.03,14.04,62.44,31.78,87.5c17.66,25.11,41.6,44.72,68.22,56.84c26.59,12.2,55.7,16.79,83.33,13.99c27.64,-2.73,53.75,-12.91,75,-28.43c21.3,-15.46,37.77,-36.26,47.69,-59.07c9.99,-22.83,13.45,-47.53,10.64,-70.83c-2.74,-23.31,-11.74,-45,-25.08,-62.5c-13.28,-17.53,-30.88,-30.8,-49.92,-38.54c-19.01,-7.8,-39.45,-10.1,-58.33,-7.29c-18.93,2.78,-36.3,10.56,-50,21.73c-13.72,11.12,-23.84,25.52,-29.39,40.77c-5.61,15.25,-6.74,31.31,-3.94,45.83c2.78,14.56,9.4,27.57,18.38,37.5c8.94,9.96,20.15,16.85,31.62,20.24c11.49,3.43,23.15,3.39,33.33,0.59c10.2,-2.77,18.84,-8.26,25,-15.03c6.19,-6.78,9.87,-14.78,11.08,-22.47c1.26,-7.69,0.04,-15.02,-2.75,-20.83c-2.77,-5.85,-7.1,-10.12,-11.68,-12.5c-4.59,-2.38,-9.41,-2.92,-13.32,-1.93c-3.92,0.93,-6.89,3.32,-8.33,6.1c-1.45,2.78,-1.41,5.93,0,8.33c-1.38,2.45,-4.08,4.02,-7.22,4.17c-3.11,0.12,-6.67,-1.23,-9.45,-4.17c-2.79,-2.91,-4.76,-7.32,-4.98,-12.5c-0.25,-5.19,1.32,-11.03,4.98,-16.37c3.63,-5.3,9.4,-10.03,16.67,-12.8c7.26,-2.79,16.03,-3.6,25,-1.63c8.92,1.93,18.05,6.7,25.52,14.13c7.51,7.41,13.37,17.53,16.15,29.17c2.78,11.63,2.46,24.76,-1.72,37.5c-4.13,12.72,-12.04,25.01,-23.28,34.67c-11.22,9.68,-25.62,16.75,-41.67,19.5c-15.99,2.79,-33.5,1.3,-50,-5.07c-16.5,-6.3,-31.97,-17.42,-43.82,-32.43c-11.87,-14.98,-20.11,-33.78,-22.85,-54.17c-2.8,-20.37,-0.11,-42.2,8.42,-62.5c8.47,-20.27,22.78,-38.94,41.58,-52.97c18.75,-14.05,41.92,-23.46,66.67,-26.2c24.71,-2.81,50.94,1.06,75,11.77c24.08,10.65,45.9,28.16,62.12,50.73c16.24,22.55,26.81,50.04,29.55,79.17c2.8,29.09,-2.19,59.64,-15.12,87.5c-12.82,27.84,-33.51,52.9,-59.88,71.27c-26.3,18.46,-58.21,30.15,-91.67,32.9c-33.45,2.81,-68.37,-3.36,-100,-18.46c-31.63,-15.1,-66.55,-21.27,-100,-18.46c-33.46,2.75,-65.37,14.44,-91.67,32.9c-26.36,18.37,-47.07,43.44,-59.88,71.27c-12.93,27.86,-17.92,58.42,-15.12,87.5c2.74,29.13,13.31,56.63,29.55,79.17c16.22,22.58,38.04,40.08,62.12,50.73c24.06,10.71,50.29,14.58,75,11.77c24.75,-2.74,47.93,-12.14,66.67,-26.2c18.8,-14.02,33.11,-32.7,41.58,-52.97c8.53,-20.3,11.22,-42.13,8.42,-62.5c-2.74,-20.39,-10.98,-39.19,-22.85,-54.17c-11.85,-15.01,-27.32,-26.12,-43.82,-32.43c-16.5,-6.37,-34.01,-7.86,-50,-5.07c-16.05,2.75,-30.45,9.81,-41.67,19.5c-11.23,9.67,-19.16,21.95,-23.28,34.67c-4.18,12.73,-4.5,25.88,-1.72,37.5c2.78,11.64,8.64,21.77,16.15,29.17c7.47,7.43,16.61,12.2,25.52,14.13c8.97,1.97,17.74,1.16,25,-1.63c7.27,-2.78,13.04,-7.5,16.67,-12.8c3.66,-5.33,5.23,-11.19,4.98,-16.37c-0.22,-5.18,-2.19,-9.59,-4.98,-12.5c-2.78,-2.94,-6.33,-4.29,-9.45,-4.17c-3.14,0.15,-5.84,1.73,-7.22,4.17c-2.79,0,-5.53,-1.48,-7.22,-4.17c-1.67,-2.63,-2.26,-6.4,-1.11,-10.26c1.12,-3.87,3.95,-7.78,8.33,-10.57c4.34,-2.79,10.23,-4.37,16.67,-3.87c6.4,0.52,13.38,3.08,19.41,8.04c6.06,4.88,11.14,12.09,13.92,20.83c2.78,8.7,3.24,18.96,0.52,29.17c-2.67,10.21,-8.47,20.33,-17.19,28.57c-8.69,8.21,-20.2,14.52,-33.33,17.26c-13.11,2.79,-27.64,2.07,-41.67,-2.83c-13.98,-4.86,-27.3,-13.82,-37.72,-26.34c-10.4,-12.44,-17.87,-28.37,-20.61,-45.83c-2.83,-17.44,-0.89,-36.39,6.18,-54.17c7.02,-17.77,19.21,-34.28,35.49,-46.87c16.21,-12.58,36.51,-21.23,58.33,-23.96c21.81,-2.83,45.12,0.28,66.67,9.53c21.53,9.21,41.29,24.56,56.02,44.64c14.77,20.01,24.58,44.62,27.31,70.83c2.84,26.19,-1.44,53.82,-12.88,79.17c-11.36,25.34,-29.94,48.24,-53.79,65.17c-23.78,16.99,-52.76,27.92,-83.33,30.66c-30.52,2.82,-62.57,-2.57,-91.67,-16.23c-29.11,-13.55,-55.21,-35.29,-74.32,-62.94c-19.17,-27.55,-31.27,-60.9,-34.01,-95.83c-2.73,-34.93,-14.84,-68.28,-34.01,-95.83c-19.11,-27.65,-45.21,-49.38,-74.32,-62.94c-29.1,-13.66,-61.15,-19.05,-91.67,-16.23c-30.57,2.74,-59.55,13.67,-83.33,30.66c-23.85,16.93,-42.43,39.83,-53.79,65.17c-11.44,25.35,-15.71,52.98,-12.88,79.17c2.73,26.21,12.54,50.82,27.31,70.83c14.73,20.09,34.49,35.43,56.02,44.64c21.55,9.26,44.86,12.36,66.67,9.53c21.83,-2.73,42.12,-11.38,58.33,-23.96c16.28,-12.58,28.48,-29.1,35.49,-46.87c7.07,-17.78,9.01,-36.73,6.18,-54.17c-2.74,-17.46,-10.21,-33.39,-20.61,-45.83c-10.42,-12.52,-23.74,-21.48,-37.72,-26.34c-14.03,-4.9,-28.56,-5.62,-41.67,-2.83c-13.13,2.74,-24.64,9.05,-33.33,17.26c-8.71,8.24,-14.52,18.37,-17.19,28.57c-2.72,10.21,-2.26,20.47,0.52,29.17c2.78,8.75,7.87,15.94,13.92,20.83c6.04,4.96,13.01,7.52,19.41,8.04c6.44,0.5,12.33,-1.07,16.67,-3.87c4.38,-2.79,7.21,-6.7,8.33,-10.57c1.15,-3.86,0.57,-7.63,-1.11,-10.26c-1.68,-2.68,-4.43,-4.17,-7.22,-4.17c-1.41,-2.4,-1.45,-5.55,0,-8.33c1.44,-2.79,4.41,-5.17,8.33,-6.1c3.91,-0.99,8.73,-0.45,13.32,1.93c4.58,2.38,8.91,6.65,11.68,12.5c2.79,5.81,4.01,13.14,2.75,20.83c-1.2,7.68,-4.9,15.7,-11.08,22.47c-6.16,6.77,-14.8,12.26,-25,15.03c-10.18,2.79,-21.84,2.84,-33.33,-0.59c-11.48,-3.39,-22.68,-10.28,-31.62,-20.24c-8.98,-9.93,-15.6,-22.94,-18.38,-37.5c-2.8,-14.52,-1.67,-30.58,3.94,-45.83c5.55,-15.25,15.67,-29.65,29.39,-40.77c13.7,-11.17,31.07,-18.96,50,-21.73c18.88,-2.8,39.32,-0.51,58.33,7.29c19.04,7.74,36.63,21.02,49.92,38.54c13.34,17.5,22.34,39.19,25.08,62.5c2.81,23.3,-0.66,48,-10.64,70.83c-9.92,22.81,-26.39,43.61,-47.69,59.07c-21.26,15.53,-47.35,25.69,-75,28.43c-27.63,2.8,-56.74,-1.79,-83.33,-13.99c-26.62,-12.12,-50.56,-31.73,-68.22,-56.84c-17.74,-25.06,-29.03,-55.47,-31.78,-87.5c-2.8,-32,2.95,-65.47,17.34,-95.83c14.3,-30.4,37.11,-57.53,65.99,-77.38c28.88,-19.85,51.7,-46.98,65.99,-77.38c14.38,-30.36,20.15,-63.83,17.34,-95.83c-2.74,-32.03,-14.04,-62.44,-31.78,-87.5c-17.66,-25.11,-41.6,-44.72,-68.22,-56.84c-26.58,-12.2,-55.7,-16.79,-83.33,-13.99c-27.65,2.73,-53.74,12.91,-75,28.43c-21.3,15.46,-37.77,36.26,-47.69,59.07c-9.99,22.83,-13.45,47.54,-10.64,70.83c2.74,23.31,11.74,45,25.08,62.5c13.29,17.53,30.88,30.8,49.92,38.54c19.01,7.8,39.45,10.1,58.33,7.29c18.93,-2.77,36.3,-10.56,50,-21.73c13.72,-11.12,23.85,-25.52,29.39,-40.77c5.62,-15.24,6.74,-31.31,3.94,-45.83c-2.78,-14.56,-9.39,-27.57,-18.38,-37.5c-8.94,-9.96,-20.15,-16.85,-31.62,-20.24c-11.49,-3.43,-23.15,-3.38,-33.33,-0.59c-10.2,2.77,-18.84,8.26,-25,15.03c-6.19,6.77,-9.87,14.79,-11.08,22.47c-1.26,7.69,-0.04,15.03,2.75,20.83c2.77,5.85,7.1,10.13,11.68,12.5c4.6,2.38,9.41,2.92,13.32,1.93c3.92,-0.93,6.89,-3.31,8.33,-6.1c1.46,-2.78,1.41,-5.93,0,-8.33c1.38,-2.45,4.08,-4.02,7.22,-4.17c3.12,-0.12,6.67,1.23,9.45,4.17c2.78,2.91,4.77,7.32,4.98,12.5c0.25,5.18,-1.32,11.04,-4.98,16.37c-3.64,5.3,-9.39,10.03,-16.67,12.8c-7.26,2.79,-16.03,3.6,-25,1.63c-8.91,-1.93,-18.05,-6.7,-25.52,-14.13c-7.52,-7.4,-13.36,-17.53,-16.15,-29.17c-2.78,-11.63,-2.46,-24.76,1.72,-37.5c4.12,-12.72,12.05,-25,23.28,-34.67c11.22,-9.68,25.62,-16.75,41.67,-19.5c15.99,-2.78,33.5,-1.3,50,5.07c16.49,6.31,31.98,17.42,43.82,32.43c11.87,14.98,20.11,33.78,22.85,54.17c2.8,20.37,0.11,42.2,-8.42,62.5c-8.47,20.27,-22.78,38.95,-41.58,52.97c-18.74,14.06,-41.92,23.46,-66.67,26.2c-24.71,2.81,-50.94,-1.06,-75,-11.77c-24.07,-10.65,-45.9,-28.16,-62.12,-50.73c-16.24,-22.54,-26.81,-50.04,-29.55,-79.17c-2.8,-29.08,2.19,-59.64,15.12,-87.5c12.81,-27.83,33.52,-52.9,59.88,-71.27c26.3,-18.46,58.21,-30.15,91.67,-32.9c33.45,-2.8,68.37,3.36,100,18.46c31.63,15.1,66.55,21.27,100,18.46c33.46,-2.75,65.37,-14.44,91.67,-32.9c26.36,-18.37,47.07,-43.43,59.88,-71.27c12.93,-27.86,17.92,-58.42,15.12,-87.5c-2.73,-29.13,-13.31,-56.62,-29.55,-79.17c-16.22,-22.57,-38.04,-40.08,-62.12,-50.73c-24.06,-10.71,-50.29,-14.58,-75,-11.77c-24.75,2.74,-47.92,12.15,-66.67,26.2c-18.8,14.03,-33.11,32.7,-41.58,52.97c-8.53,20.31,-11.22,42.13,-8.42,62.5c2.74,20.39,10.98,39.19,22.85,54.17c11.84,15.01,27.33,26.13,43.82,32.43c16.5,6.37,34.01,7.86,50,5.07c16.05,-2.75,30.45,-9.81,41.67,-19.5c11.23,-9.66,19.16,-21.95,23.28,-34.67c4.18,-12.73,4.5,-25.88,1.72,-37.5c-2.79,-11.64,-8.63,-21.76,-16.15,-29.17c-7.47,-7.43,-16.6,-12.2,-25.52,-14.13c-8.96,-1.97,-17.74,-1.16,-25,1.63c-7.28,2.78,-13.03,7.5,-16.67,12.8c-3.66,5.33,-5.23,11.19,-4.98,16.37c0.22,5.18,2.19,9.59,4.98,12.5c2.78,2.94,6.34,4.29,9.45,4.17c3.14,-0.15,5.84,-1.73,7.22,-4.17">
        </path>
      </g>
    </symbol>
    <symbol id="sym2" viewBox="0 0 1153.34 1082.32" overflow="visible">
      <g transform="translate(776.67,887.84)">
        <path d="M0,0c-2.79,0,-5.53,1.49,-7.22,4.17c-1.67,2.62,-2.26,6.41,-1.11,10.26c1.12,3.87,3.95,7.79,8.33,10.57c4.34,2.79,10.23,4.37,16.67,3.87c6.4,-0.52,13.38,-3.08,19.41,-8.04c6.06,-4.88,11.14,-12.09,13.92,-20.83c2.78,-8.7,3.24,-18.96,0.52,-29.17c-2.67,-10.2,-8.47,-20.33,-17.19,-28.57c-8.69,-8.21,-20.2,-14.52,-33.33,-17.26c-13.11,-2.79,-27.64,-2.07,-41.67,2.83c-13.98,4.86,-27.3,13.82,-37.72,26.34c-10.4,12.44,-17.87,28.37,-20.61,45.83c-2.83,17.45,-0.89,36.39,6.18,54.17c7.02,17.77,19.21,34.28,35.49,46.87c16.21,12.58,36.51,21.23,58.33,23.96c21.81,2.83,45.12,-0.27,66.67,-9.53c21.53,-9.21,41.29,-24.56,56.02,-44.64c14.77,-20.01,24.58,-44.62,27.31,-70.83c2.84,-26.19,-1.44,-53.82,-12.88,-79.17c-11.36,-25.34,-29.94,-48.24,-53.79,-65.17c-23.78,-16.99,-52.76,-27.92,-83.33,-30.66c-30.52,-2.82,-62.57,2.57,-91.67,16.23c-29.11,13.56,-55.21,35.29,-74.32,62.94c-19.17,27.55,-31.27,60.9,-34.01,95.83c-2.73,34.94,-14.84,68.28,-34.01,95.83c-19.11,27.65,-45.21,49.39,-74.32,62.94c-29.1,13.66,-61.15,19.05,-91.67,16.23c-30.57,-2.74,-59.55,-13.67,-83.33,-30.66c-23.85,-16.93,-42.43,-39.83,-53.79,-65.17c-11.44,-25.35,-15.71,-52.98,-12.88,-79.17c2.73,-26.2,12.54,-50.82,27.31,-70.83c14.73,-20.08,34.49,-35.43,56.02,-44.64c21.55,-9.26,44.86,-12.36,66.67,-9.53c21.83,2.73,42.12,11.38,58.33,23.96c16.28,12.59,28.48,29.1,35.49,46.87c7.07,17.78,9.01,36.73,6.18,54.17c-2.74,17.46,-10.21,33.39,-20.61,45.83c-10.42,12.52,-23.74,21.48,-37.72,26.34c-14.03,4.9,-28.56,5.62,-41.67,2.83c-13.13,-2.74,-24.64,-9.05,-33.33,-17.26c-8.71,-8.24,-14.52,-18.36,-17.19,-28.57c-2.72,-10.21,-2.26,-20.47,0.52,-29.17c2.78,-8.75,7.87,-15.94,13.92,-20.83c6.04,-4.95,13.01,-7.52,19.41,-8.04c6.44,-0.5,12.33,1.08,16.67,3.87c4.38,2.79,7.21,6.7,8.33,10.57c1.15,3.85,0.57,7.64,-1.11,10.26c-1.68,2.69,-4.43,4.17,-7.22,4.17c-1.38,-2.45,-4.08,-4.02,-7.22,-4.17c-3.11,-0.12,-6.67,1.23,-9.45,4.17c-2.79,2.91,-4.76,7.32,-4.98,12.5c-0.25,5.18,1.32,11.04,4.98,16.37c3.63,5.3,9.4,10.03,16.67,12.8c7.26,2.79,16.03,3.6,25,1.63c8.92,-1.93,18.05,-6.7,25.52,-14.13c7.51,-7.4,13.37,-17.53,16.15,-29.17c2.78,-11.63,2.46,-24.76,-1.72,-37.5c-4.13,-12.72,-12.04,-25,-23.28,-34.67c-11.22,-9.68,-25.62,-16.75,-41.67,-19.5c-15.99,-2.78,-33.5,-1.3,-50,5.07c-16.5,6.31,-31.97,17.42,-43.82,32.43c-11.87,14.98,-20.11,33.78,-22.85,54.17c-2.8,20.37,-0.11,42.2,8.42,62.5c8.47,20.27,22.78,38.95,41.58,52.97c18.75,14.06,41.92,23.46,66.67,26.2c24.71,2.81,50.94,-1.06,75,-11.77c24.08,-10.65,45.9,-28.16,62.12,-50.73c16.24,-22.54,26.81,-50.04,29.55,-79.17c2.8,-29.08,-2.19,-59.64,-15.12,-87.5c-12.82,-27.83,-33.51,-52.9,-59.88,-71.27c-26.3,-18.46,-58.21,-30.15,-91.67,-32.9c-33.45,-2.8,-68.37,3.36,-100,18.46c-31.63,15.1,-66.55,21.27,-100,18.46c-33.46,-2.75,-65.37,-14.44,-91.67,-32.9c-26.36,-18.37,-47.07,-43.43,-59.88,-71.27c-12.93,-27.86,-17.92,-58.42,-15.12,-87.5c2.74,-29.13,13.31,-56.62,29.55,-79.17c16.22,-22.57,38.04,-40.08,62.12,-50.73c24.06,-10.71,50.29,-14.58,75,-11.77c24.75,2.74,47.93,12.15,66.67,26.2c18.8,14.03,33.11,32.7,41.58,52.97c8.53,20.31,11.22,42.13,8.42,62.5c-2.74,20.39,-10.98,39.19,-22.85,54.17c-11.85,15.01,-27.32,26.13,-43.82,32.43c-16.5,6.37,-34.01,7.86,-50,5.07c-16.05,-2.75,-30.45,-9.81,-41.67,-19.5c-11.23,-9.66,-19.16,-21.95,-23.28,-34.67c-4.18,-12.73,-4.5,-25.88,-1.72,-37.5c2.78,-11.64,8.64,-21.76,16.15,-29.17c7.47,-7.43,16.61,-12.2,25.52,-14.13c8.97,-1.97,17.74,-1.16,25,1.63c7.27,2.78,13.04,7.5,16.67,12.8c3.66,5.33,5.23,11.19,4.98,16.37c-0.22,5.18,-2.19,9.59,-4.98,12.5c-2.78,2.94,-6.33,4.29,-9.45,4.17c-3.14,-0.15,-5.84,-1.73,-7.22,-4.17c1.41,-2.4,1.46,-5.55,0,-8.33c-1.44,-2.79,-4.41,-5.17,-8.33,-6.1c-3.91,-0.99,-8.72,-0.45,-13.32,1.93c-4.58,2.38,-8.91,6.65,-11.68,12.5c-2.79,5.81,-4,13.14,-2.75,20.83c1.2,7.68,4.9,15.7,11.08,22.47c6.16,6.77,14.8,12.26,25,15.03c10.19,2.79,21.84,2.84,33.33,-0.59c11.48,-3.39,22.68,-10.28,31.62,-20.24c8.99,-9.93,15.6,-22.94,18.38,-37.5c2.8,-14.52,1.68,-30.58,-3.94,-45.83c-5.54,-15.25,-15.67,-29.65,-29.39,-40.77c-13.7,-11.17,-31.07,-18.96,-50,-21.73c-18.88,-2.8,-39.32,-0.51,-58.33,7.29c-19.04,7.74,-36.63,21.02,-49.92,38.54c-13.34,17.5,-22.34,39.19,-25.08,62.5c-2.81,23.3,0.66,48,10.64,70.83c9.92,22.81,26.39,43.61,47.69,59.07c21.26,15.53,47.35,25.69,75,28.43c27.63,2.8,56.75,-1.79,83.33,-13.99c26.62,-12.12,50.56,-31.73,68.22,-56.84c17.74,-25.06,29.04,-55.47,31.78,-87.5c2.8,-32,-2.95,-65.47,-17.34,-95.83c-14.29,-30.4,-37.11,-57.53,-65.99,-77.38c-28.88,-19.85,-51.7,-46.98,-65.99,-77.38c-14.38,-30.36,-20.15,-63.83,-17.34,-95.83c2.74,-32.03,14.04,-62.44,31.78,-87.5c17.66,-25.11,41.6,-44.72,68.22,-56.84c26.59,-12.2,55.7,-16.79,83.33,-13.99c27.64,2.73,53.75,12.91,75,28.43c21.3,15.46,37.77,36.26,47.69,59.07c9.99,22.83,13.45,47.54,10.64,70.83c-2.74,23.31,-11.74,45,-25.08,62.5c-13.28,17.53,-30.88,30.8,-49.92,38.54c-19.01,7.8,-39.45,10.1,-58.33,7.29c-18.93,-2.77,-36.3,-10.56,-50,-21.73c-13.72,-11.12,-23.84,-25.52,-29.39,-40.77c-5.61,-15.24,-6.74,-31.31,-3.94,-45.83c2.78,-14.56,9.4,-27.57,18.38,-37.5c8.94,-9.96,20.15,-16.85,31.62,-20.24c11.49,-3.43,23.15,-3.38,33.33,-0.59c10.2,2.77,18.84,8.26,25,15.03c6.19,6.77,9.87,14.79,11.08,22.47c1.26,7.69,0.04,15.03,-2.75,20.83c-2.77,5.85,-7.1,10.13,-11.68,12.5c-4.59,2.38,-9.41,2.92,-13.32,1.93c-3.92,-0.93,-6.89,-3.31,-8.33,-6.1c-1.45,-2.78,-1.41,-5.93,0,-8.33c2.79,0,5.54,-1.48,7.22,-4.17c1.68,-2.63,2.26,-6.4,1.11,-10.26c-1.11,-3.87,-3.95,-7.78,-8.33,-10.57c-4.34,-2.79,-10.23,-4.37,-16.67,-3.87c-6.4,0.52,-13.37,3.08,-19.41,8.04c-6.06,4.88,-11.14,12.09,-13.92,20.83c-2.79,8.7,-3.23,18.96,-0.52,29.17c2.67,10.21,8.47,20.33,17.19,28.57c8.68,8.21,20.21,14.52,33.33,17.26c13.11,2.79,27.64,2.07,41.67,-2.83c13.98,-4.86,27.3,-13.82,37.72,-26.34c10.4,-12.44,17.87,-28.37,20.61,-45.83c2.83,-17.44,0.89,-36.39,-6.18,-54.17c-7.02,-17.77,-19.21,-34.28,-35.49,-46.87c-16.21,-12.58,-36.51,-21.23,-58.33,-23.96c-21.81,-2.83,-45.12,0.28,-66.67,9.53c-21.53,9.21,-41.28,24.56,-56.02,44.64c-14.77,20.01,-24.58,44.62,-27.31,70.83c-2.83,26.19,1.44,53.82,12.88,79.17c11.36,25.34,29.94,48.24,53.79,65.17c23.78,16.99,52.76,27.92,83.33,30.66c30.52,2.82,62.57,-2.57,91.67,-16.23c29.11,-13.55,55.21,-35.29,74.32,-62.94c19.17,-27.55,31.27,-60.9,34.01,-95.83c2.74,-34.93,14.84,-68.28,34.01,-95.83c19.11,-27.65,45.21,-49.38,74.32,-62.94c29.1,-13.66,61.15,-19.05,91.67,-16.23c30.57,2.74,59.55,13.67,83.33,30.66c23.85,16.93,42.43,39.83,53.79,65.17c11.44,25.35,15.72,52.98,12.88,79.17c-2.73,26.21,-12.54,50.82,-27.31,70.83c-14.73,20.09,-34.49,35.43,-56.02,44.64c-21.55,9.26,-44.86,12.36,-66.67,9.53c-21.82,-2.73,-42.12,-11.38,-58.33,-23.96c-16.28,-12.58,-28.47,-29.1,-35.49,-46.87c-7.07,-17.78,-9,-36.73,-6.18,-54.17c2.74,-17.46,10.21,-33.39,20.61,-45.83c10.42,-12.52,23.74,-21.48,37.72,-26.34c14.03,-4.9,28.56,-5.62,41.67,-2.83c13.12,2.74,24.65,9.05,33.33,17.26c8.72,8.24,14.52,18.37,17.19,28.57c2.71,10.21,2.27,20.47,-0.52,29.17c-2.78,8.75,-7.87,15.94,-13.92,20.83c-6.03,4.96,-13.01,7.52,-19.41,8.04c-6.44,0.5,-12.33,-1.07,-16.67,-3.87c-4.38,-2.79,-7.21,-6.7,-8.33,-10.57c-1.15,-3.86,-0.56,-7.63,1.11,-10.26c1.69,-2.68,4.43,-4.17,7.22,-4.17c1.38,2.45,4.08,4.02,7.22,4.17c3.12,0.12,6.67,-1.23,9.45,-4.17c2.78,-2.91,4.77,-7.32,4.98,-12.5c0.25,-5.19,-1.32,-11.03,-4.98,-16.37c-3.64,-5.3,-9.39,-10.03,-16.67,-12.8c-7.26,-2.79,-16.03,-3.6,-25,-1.63c-8.91,1.93,-18.05,6.7,-25.52,14.13c-7.52,7.41,-13.36,17.53,-16.15,29.17c-2.78,11.63,-2.46,24.76,1.72,37.5c4.12,12.72,12.05,25.01,23.28,34.67c11.22,9.68,25.62,16.75,41.67,19.5c15.99,2.79,33.5,1.3,50,-5.07c16.49,-6.3,31.98,-17.42,43.82,-32.43c11.87,-14.98,20.11,-33.78,22.85,-54.17c2.8,-20.37,0.11,-42.2,-8.42,-62.5c-8.47,-20.27,-22.78,-38.94,-41.58,-52.97c-18.74,-14.05,-41.92,-23.46,-66.67,-26.2c-24.71,-2.81,-50.94,1.06,-75,11.77c-24.07,10.65,-45.9,28.16,-62.12,50.73c-16.24,22.55,-26.81,50.04,-29.55,79.17c-2.8,29.09,2.19,59.64,15.12,87.5c12.81,27.84,33.52,52.9,59.88,71.27c26.3,18.46,58.21,30.15,91.67,32.9c33.45,2.81,68.37,-3.36,100,-18.46c31.63,-15.1,66.55,-21.27,100,-18.46c33.46,2.75,65.37,14.44,91.67,32.9c26.36,18.37,47.07,43.44,59.88,71.27c12.93,27.86,17.92,58.42,15.12,87.5c-2.73,29.13,-13.31,56.63,-29.55,79.17c-16.22,22.58,-38.04,40.08,-62.12,50.73c-24.06,10.71,-50.29,14.58,-75,11.77c-24.75,-2.74,-47.92,-12.14,-66.67,-26.2c-18.8,-14.02,-33.11,-32.7,-41.58,-52.97c-8.53,-20.3,-11.22,-42.13,-8.42,-62.5c2.74,-20.39,10.98,-39.19,22.85,-54.17c11.84,-15.01,27.33,-26.12,43.82,-32.43c16.5,-6.37,34.01,-7.86,50,-5.07c16.05,2.75,30.45,9.81,41.67,19.5c11.23,9.67,19.16,21.95,23.28,34.67c4.18,12.73,4.5,25.88,1.72,37.5c-2.79,11.64,-8.63,21.77,-16.15,29.17c-7.47,7.43,-16.6,12.2,-25.52,14.13c-8.96,1.97,-17.74,1.16,-25,-1.63c-7.28,-2.78,-13.03,-7.5,-16.67,-12.8c-3.66,-5.33,-5.23,-11.19,-4.98,-16.37c0.22,-5.18,2.19,-9.59,4.98,-12.5c2.78,-2.94,6.34,-4.29,9.45,-4.17c3.14,0.15,5.84,1.73,7.22,4.17c-1.41,2.4,-1.45,5.55,0,8.33c1.44,2.79,4.41,5.17,8.33,6.1c3.91,0.99,8.73,0.45,13.32,-1.93c4.58,-2.37,8.91,-6.65,11.68,-12.5c2.79,-5.8,4.01,-13.14,2.75,-20.83c-1.2,-7.68,-4.9,-15.7,-11.08,-22.47c-6.16,-6.77,-14.8,-12.26,-25,-15.03c-10.18,-2.79,-21.84,-2.84,-33.33,0.59c-11.48,3.4,-22.68,10.28,-31.62,20.24c-8.98,9.93,-15.6,22.94,-18.38,37.5c-2.8,14.52,-1.67,30.59,3.94,45.83c5.55,15.25,15.67,29.65,29.39,40.77c13.7,11.17,31.07,18.96,50,21.73c18.88,2.81,39.32,0.51,58.33,-7.29c19.04,-7.74,36.63,-21.02,49.92,-38.54c13.34,-17.5,22.34,-39.19,25.08,-62.5c2.81,-23.29,-0.66,-48,-10.64,-70.83c-9.92,-22.82,-26.39,-43.6,-47.69,-59.07c-21.26,-15.53,-47.35,-25.69,-75,-28.43c-27.63,-2.8,-56.74,1.79,-83.33,13.99c-26.62,12.12,-50.56,31.73,-68.22,56.84c-17.74,25.05,-29.03,55.48,-31.78,87.5c-2.8,32,2.95,65.47,17.34,95.83c14.3,30.4,37.11,57.53,65.99,77.38c28.88,19.85,51.7,46.98,65.99,77.38c14.38,30.36,20.15,63.83,17.34,95.83c-2.74,32.03,-14.04,62.44,-31.78,87.5c-17.66,25.11,-41.6,44.72,-68.22,56.84c-26.58,12.2,-55.7,16.79,-83.33,13.99c-27.65,-2.73,-53.74,-12.91,-75,-28.43c-21.3,-15.46,-37.77,-36.26,-47.69,-59.07c-9.99,-22.83,-13.45,-47.53,-10.64,-70.83c2.74,-23.31,11.74,-45,25.08,-62.5c13.29,-17.53,30.88,-30.8,49.92,-38.54c19.01,-7.8,39.45,-10.1,58.33,-7.29c18.93,2.78,36.3,10.56,50,21.73c13.72,11.12,23.85,25.52,29.39,40.77c5.62,15.25,6.74,31.31,3.94,45.83c-2.78,14.56,-9.39,27.57,-18.38,37.5c-8.94,9.96,-20.15,16.85,-31.62,20.24c-11.49,3.43,-23.15,3.39,-33.33,0.59c-10.2,-2.77,-18.84,-8.26,-25,-15.03c-6.19,-6.78,-9.87,-14.78,-11.08,-22.47c-1.26,-7.69,-0.04,-15.02,2.75,-20.83c2.77,-5.85,7.1,-10.12,11.68,-12.5c4.6,-2.38,9.41,-2.92,13.32,-1.93c3.92,0.93,6.89,3.32,8.33,6.1c1.46,2.78,1.41,5.93,0,8.33">
        </path>
      </g>
    </symbol>
   </defs>

  <g transform="translate(5,0) rotate(7,300,300)">   
    <g transform="rotate(-10,300,300)">
      <g transform="translate(8,8)"><use width="600" height="600" xlink:href="#sym1" style="fill:#666;stroke:none;stroke-linecap:round;stroke-linejoin:round;filter:url(#f1);"/></g>
      <use width="600" height="600" xlink:href="#sym1" style="fill:#dd0000;stroke:none;"/>
    </g>
  
    <g transform="translate(195,205) scale(0.35)">
      <g transform="rotate(20,300,300)">
        <g transform="translate(8,8)"><use width="600" height="600" xlink:href="#sym2" style="fill:#666;stroke:none;stroke-linecap:round;stroke-linejoin:round;filter:url(#f1);"/></g>
        <use width="600" height="600" xlink:href="#sym2" style="fill:#fff;stroke:none;"/>
      </g>
    
      <g transform="translate(195,194) scale(0.35)">
        <g transform="rotate(-10,300,300)">
          <g transform="translate(8,8)"><use width="600" height="600" xlink:href="#sym1" style="fill:#666;stroke:none;stroke-linecap:round;stroke-linejoin:round;filter:url(#f1);"/></g>
          <use width="600" height="600" xlink:href="#sym1" style="fill:#dd0000;stroke:none;"/>
        </g>
      </g>
    </g>
  </g>

</svg>

