<svg width="100%" height="100%" viewBox="0 0 600 600"
     xmlns="http://www.w3.org/2000/svg"
     xmlns:xlink="http://www.w3.org/1999/xlink">

  <desc>
    Polygon Star code generated by Polygon Star Maker
    http://steamcoded.org/StarMaker.svg

    Polygon Star Maker written by Jay Nick
    Version 1.0 - March, 2017
  </desc>

  <defs>
    <symbol id="star" viewBox="0 0 600 600" overflow="visible">
      <path d="M300,0L388.2,178.6L585.3,207.3L442.7,346.4L476.3,542.7L300,450L123.7,542.7L157.3,346.4L14.7,207.3L211.8,178.6L300,0z"/>
    </symbol>
    <symbol id="starshadow" viewBox="0 0 600 600" overflow="visible">
      <path d="M300,300L300,0L388.2,178.6L300,300zL585.3,207.3L442.7,346.4L300,300zL476.3,542.7L300,450L300,300zL123.7,542.7L157.3,346.4L300,300zL14.7,207.3L211.8,178.6L300,300z"/>
    </symbol>
  </defs>

  <g transform="translate(0,28)">
    <use width="600" height="600" xlink:href="#star" style="fill:#FFD700;stroke:none;"/>
    <use width="600" height="600" xlink:href="#starshadow" style="fill:black;fill-opacity:0.2;stroke:none;"/>
  </g>
</svg>