<svg width="100%" height="100%" viewBox="0 0 1280 1180" 
     xmlns="http://www.w3.org/2000/svg" 
     xmlns:xlink="http://www.w3.org/1999/xlink">
     
  <desc>
    Triskelion Path Animation
    
    Jay Nick
    steamcoded.org
  </desc>

  <desc>
    Polyskelion code generated by Polyskelion Maker at:
    http://steamcoded.org/PolyskelionMaker.svg

    Polyskelion Maker written by Jay Nick
    Version 1.0 - March, 2017
  </desc>

  <style type="text/css"><![CDATA[
    .show {fill:none;stroke:#d00;stroke-width:4px;}
    .hide {fill:none;stroke:none;}
    .p3 {fill:#d00;stroke:#d00;stroke-width:4px;}
    .bg {fill:#fff;}
  ]]>
  </style>

  <rect width="100%" height="100%" class="bg hide" />
  
  <path id="p3" class="p3" d="M310,328.43c5.67,-0.18,10.76,6.53,8.33,14.43c-2.02,7.78,-11.91,15.57,-25,14.44c-12.83,-0.72,-27.82,-11.15,-33.33,-28.87c-5.86,-17.33,-1,-41.22,16.67,-57.74c17.1,-16.69,46.85,-24.47,75,-14.43c28.08,9.34,53.01,36.92,58.33,72.17c6.01,34.86,-8.71,75.9,-41.67,101.04c-32.2,25.62,-81.74,33.36,-125,14.43c-43.37,-17.94,-78.15,-62.72,-83.33,-115.47c-6.16,-52.37,18.45,-110.59,66.67,-144.34c47.32,-34.5,116.61,-42.29,175,-14.43c58.61,26.56,103.35,88.48,108.33,158.77c6.35,69.9,-28.2,145.27,-91.67,187.64c-62.42,43.42,-151.51,51.21,-225,14.43c-73.89,-35.21,-128.48,-114.23,-133.33,-202.07c-6.5,-87.46,37.92,-179.94,116.67,-230.94c77.5,-52.35,186.44,-60.09,275,-14.43c89.13,43.83,153.67,139.99,158.33,245.37c4.66,105.38,69.2,201.54,158.33,245.37c88.56,45.66,197.5,37.92,275,-14.43c78.75,-51,123.17,-143.47,116.67,-230.94c-4.85,-87.84,-59.44,-166.86,-133.33,-202.07c-73.49,-36.77,-162.58,-28.99,-225,14.43c-63.47,42.37,-98.02,117.74,-91.67,187.64c4.98,70.29,49.72,132.21,108.33,158.77c58.38,27.86,127.69,20.08,175,-14.43c48.22,-33.75,72.84,-91.97,66.67,-144.34c-5.18,-52.75,-39.96,-97.53,-83.33,-115.47c-43.25,-18.93,-92.8,-11.19,-125,14.43c-32.96,25.14,-47.68,66.18,-41.67,101.04c5.32,35.25,30.25,62.84,58.33,72.17c28.16,10.04,57.9,2.26,75,-14.43c17.67,-16.52,22.53,-40.42,16.67,-57.74c-5.51,-17.72,-20.49,-28.15,-33.33,-28.87c-13.09,-1.13,-22.98,6.66,-25,14.44c-2.42,7.91,2.66,14.61,8.33,14.43c-2.67,5.01,-11.04,6.04,-16.67,0c-5.71,-5.63,-7.51,-18.13,0,-28.87c7.05,-10.74,23.57,-18.53,41.67,-14.43c17.92,3.61,36.23,19.72,41.67,43.3c5.9,23.17,-2.24,52.79,-25,72.17c-22.12,19.66,-58.49,27.45,-91.67,14.43c-33.18,-12.22,-61.39,-45.51,-66.67,-86.6c-6.06,-40.68,11.99,-87.48,50,-115.47c37.26,-28.59,93.37,-36.33,141.67,-14.43c48.44,20.84,86.55,71.28,91.67,129.9c6.22,58.22,-21.68,122.16,-75,158.77c-52.35,37.48,-128.27,45.26,-191.67,14.44c-63.71,-29.45,-111.72,-97.08,-116.67,-173.21c-6.38,-75.75,31.42,-156.84,100,-202.07c67.46,-46.4,163.17,-54.15,241.67,-14.44c79,38.09,136.87,122.82,141.67,216.51c6.57,93.28,-41.17,191.52,-125,245.37c-82.53,55.32,-198.08,63.06,-291.67,14.44c-93.59,-48.62,-209.14,-40.88,-291.67,14.44c-83.82,53.85,-131.57,152.09,-125,245.37c4.8,93.69,62.67,178.43,141.67,216.51c78.5,39.7,174.22,31.97,241.67,-14.44c68.58,-45.23,106.38,-126.32,100,-202.07c-4.95,-76.12,-52.96,-143.76,-116.67,-173.21c-63.4,-30.82,-139.31,-23.04,-191.67,14.44c-53.32,36.61,-81.22,100.56,-75,158.77c5.12,58.62,43.23,109.07,91.67,129.9c48.3,21.9,104.42,14.16,141.67,-14.43c38.01,-27.99,56.06,-74.79,50,-115.47c-5.28,-41.09,-33.49,-74.38,-66.67,-86.6c-33.18,-13.02,-69.55,-5.23,-91.67,14.43c-22.75,19.39,-30.9,48.99,-25,72.17c5.44,23.58,23.76,39.69,41.67,43.3c18.1,4.1,34.62,-3.68,41.67,-14.43c7.51,-10.73,5.71,-23.25,0,-28.87c-5.63,-6.04,-14,-5.01,-16.67,0c-3,-4.83,0.28,-12.57,8.33,-14.43c7.75,-2.12,19.45,2.52,25,14.43c5.78,11.49,4.29,29.67,-8.33,43.3c-12.07,13.72,-35.2,21.5,-58.33,14.44c-23.03,-6.5,-44.62,-28.32,-50,-57.74c-5.96,-29,5.46,-64.36,33.33,-86.6c27.17,-22.64,70.1,-30.39,108.33,-14.44c38.3,15.12,69.76,54.09,75,101.04c6.13,46.53,-15.21,99.04,-58.33,129.9c-42.29,31.56,-105.01,39.3,-158.33,14.44c-53.54,-23.73,-94.95,-79.88,-100,-144.34c-6.31,-64.03,24.96,-133.74,83.33,-173.21c57.38,-40.43,139.92,-48.22,208.33,-14.43c68.81,32.35,120.1,105.65,125,187.64c6.46,81.57,-34.67,168.42,-108.33,216.51c-72.47,49.37,-174.8,57.1,-258.33,14.43c-84.05,-40.98,-145.29,-131.38,-150,-230.94c-6.62,-99.14,44.41,-203.08,133.33,-259.81c88.92,-56.73,139.95,-160.67,133.33,-259.81c-4.71,-99.55,-65.95,-189.96,-150,-230.94c-83.53,-42.68,-185.86,-34.93,-258.33,14.43c-73.66,48.09,-114.79,134.94,-108.33,216.51c4.9,81.99,56.19,155.29,125,187.64c68.41,33.79,150.95,26.01,208.33,-14.43c58.37,-39.47,89.65,-109.17,83.33,-173.21c-5.06,-64.45,-46.45,-120.62,-100,-144.34c-53.31,-24.86,-116.05,-17.12,-158.33,14.44c-43.13,30.86,-64.45,83.37,-58.33,129.9c5.25,46.95,36.7,85.92,75,101.04c38.23,15.95,81.16,8.2,108.33,-14.44c27.86,-22.24,39.3,-57.6,33.33,-86.6c-5.37,-29.42,-26.98,-51.24,-50,-57.74c-23.13,-7.06,-46.26,0.73,-58.33,14.44c-12.62,13.63,-14.1,31.81,-8.33,43.3c5.55,11.91,17.25,16.55,25,14.43c8.05,-1.86,11.33,-9.6,8.33,-14.43">
    <animate attributeName="class" values="show;hide;" fill="freeze" begin="1s" dur="5s" />
  </path>
  
  <circle r="35" style="fill:blue;">
    <animateMotion dur="3s" begin="1s" repeatCount="indefinite">
      <mpath xlink:href="#p3" />
    </animateMotion>
  </circle>
  
  <circle r="35" style="fill:red;">
    <animateMotion dur="3s" begin="2s" repeatCount="indefinite">
      <mpath xlink:href="#p3" />
    </animateMotion>
  </circle>
  
  <circle r="35" style="fill:#0e0;">
    <animateMotion dur="3s" begin="3s" repeatCount="indefinite">
      <mpath xlink:href="#p3" />
    </animateMotion>
  </circle>
  
  <circle r="38" class="bg"/>
</svg>